<svg id="Layer_1" data-name="Layer 1" xmlns="http://www.w3.org/2000/svg" viewBox="0 0 16 16"><defs><style>.cls-1{fill:#f7feff;}.cls-2{fill:#231e2b;}.cls-3{fill:#f5f38e;}.cls-4{fill:#e2b436;}.cls-5{fill:#c2751d;}.cls-6{fill:#cf8934;}</style></defs><title>coin</title><rect class="cls-1" x="6" y="15" width="4" height="1"/><rect class="cls-1" x="10" y="14" width="2" height="1"/><rect class="cls-2" x="6" y="14" width="4" height="1"/><rect class="cls-1" x="4" y="14" width="2" height="1"/><rect class="cls-1" x="12" y="13" width="1" height="1"/><rect class="cls-2" x="10" y="13" width="2" height="1"/><rect class="cls-2" x="4" y="13" width="2" height="1"/><rect class="cls-1" x="3" y="13" width="1" height="1"/><rect class="cls-1" x="13" y="12" width="1" height="1"/><rect class="cls-2" x="12" y="12" width="1" height="1"/><rect class="cls-3" x="6" y="12" width="2" height="1"/><polygon class="cls-4" points="5 12 5 11 4 11 4 6 5 6 5 5 6 5 6 4 10 4 10 3 8 3 8 2 6 2 6 3 4 3 4 4 3 4 3 6 2 6 2 10 3 10 3 12 4 12 4 13 6 13 6 12 5 12"/><rect class="cls-2" x="3" y="12" width="1" height="1"/><rect class="cls-1" x="2" y="12" width="1" height="1"/><rect class="cls-3" x="5" y="11" width="1" height="1"/><rect class="cls-2" x="2" y="10" width="1" height="2"/><rect class="cls-1" x="14" y="10" width="1" height="2"/><rect class="cls-2" x="13" y="10" width="1" height="2"/><rect class="cls-5" x="7" y="10" width="1" height="1"/><rect class="cls-3" x="4" y="10" width="1" height="1"/><rect class="cls-1" x="1" y="10" width="1" height="2"/><rect class="cls-5" x="6" y="9" width="1" height="1"/><rect class="cls-2" x="1" y="6" width="1" height="4"/><rect class="cls-2" x="14" y="6" width="1" height="4"/><rect class="cls-1" y="6" width="1" height="4"/><rect class="cls-3" x="9" y="7" width="1" height="1"/><rect class="cls-1" x="15" y="6" width="1" height="4"/><rect class="cls-5" x="11" y="6" width="1" height="1"/><rect class="cls-3" x="8" y="6" width="1" height="1"/><polygon class="cls-4" points="8 6 7 6 7 7 6 7 6 9 7 9 7 10 9 10 9 9 10 9 10 8 9 8 9 7 8 7 8 6"/><rect class="cls-1" x="14" y="4" width="1" height="2"/><polygon class="cls-4" points="13 5 12 5 12 4 10 4 10 5 11 5 11 6 12 6 12 10 11 10 11 11 10 11 10 12 8 12 8 13 6 13 6 14 10 14 10 13 12 13 12 12 13 12 13 10 14 10 14 6 13 6 13 5"/><rect class="cls-5" x="10" y="5" width="1" height="1"/><path class="cls-6" d="M8,5V4H6V5H5V6H4v4H5v1H6v1h4V11h1V10h1V7H11V6H10V5Zm2,2V9H9v1H8v1H7V10H6V7H7V6H9V7Z"/><rect class="cls-2" x="2" y="4" width="1" height="2"/><rect class="cls-1" x="1" y="4" width="1" height="2"/><rect class="cls-2" x="13" y="4" width="1" height="2"/><rect class="cls-3" x="12" y="4" width="1" height="1"/><rect class="cls-5" x="8" y="4" width="2" height="1"/><rect class="cls-1" x="13" y="3" width="1" height="1"/><rect class="cls-2" x="12" y="3" width="1" height="1"/><rect class="cls-3" x="10" y="3" width="2" height="1"/><rect class="cls-2" x="3" y="3" width="1" height="1"/><rect class="cls-1" x="2" y="3" width="1" height="1"/><rect class="cls-1" x="12" y="2" width="1" height="1"/><rect class="cls-2" x="10" y="2" width="2" height="1"/><rect class="cls-3" x="8" y="2" width="2" height="1"/><rect class="cls-2" x="4" y="2" width="2" height="1"/><rect class="cls-1" x="3" y="2" width="1" height="1"/><rect class="cls-1" x="10" y="1" width="2" height="1"/><rect class="cls-2" x="6" y="1" width="4" height="1"/><rect class="cls-1" x="4" y="1" width="2" height="1"/><rect class="cls-1" x="6" width="4" height="1"/></svg>